<?xml version="1.0" encoding="UTF-8" standalone="no"?>
<svg
   xmlns:dc="http://purl.org/dc/elements/1.1/"
   xmlns:cc="http://creativecommons.org/ns#"
   xmlns:rdf="http://www.w3.org/1999/02/22-rdf-syntax-ns#"
   xmlns:svg="http://www.w3.org/2000/svg"
   xmlns="http://www.w3.org/2000/svg"
   xmlns:sodipodi="http://sodipodi.sourceforge.net/DTD/sodipodi-0.dtd"
   xmlns:inkscape="http://www.inkscape.org/namespaces/inkscape"
   width="300"
   height="300"
   viewBox="0 0 79.374999 79.375"
   version="1.1"
   id="svg171"
   inkscape:export-filename="C:\Users\jmcke\source\repos\Gopher360GameBar\Package\Images\LockScreenLogo.scale-200.png"
   inkscape:export-xdpi="15.36"
   inkscape:export-ydpi="15.36"
   inkscape:version="1.0.1 (3bc2e813f5, 2020-09-07)"
   sodipodi:docname="gopher-square.svg">
  <title
     id="title224">Gopher</title>
  <defs
     id="defs165" />
  <sodipodi:namedview
     id="base"
     pagecolor="#ffffff"
     bordercolor="#666666"
     borderopacity="1.0"
     inkscape:pageopacity="0.0"
     inkscape:pageshadow="2"
     inkscape:zoom="3.959798"
     inkscape:cx="178.3035"
     inkscape:cy="192.79816"
     inkscape:document-units="mm"
     inkscape:current-layer="layer1"
     inkscape:document-rotation="0"
     showgrid="false"
     units="px"
     width="300px"
     inkscape:window-width="3840"
     inkscape:window-height="2092"
     inkscape:window-x="-9"
     inkscape:window-y="1341"
     inkscape:window-maximized="1" />
  <metadata
     id="metadata168">
    <rdf:RDF>
      <cc:Work
         rdf:about="">
        <dc:format>image/svg+xml</dc:format>
        <dc:type
           rdf:resource="http://purl.org/dc/dcmitype/StillImage" />
        <dc:title>Gopher</dc:title>
      </cc:Work>
    </rdf:RDF>
  </metadata>
  <g
     inkscape:label="Layer 1"
     inkscape:groupmode="layer"
     id="layer1">
    <g
       id="g222"
       transform="matrix(0.40340079,0,0,0.40340079,24.744864,26.879525)">
      <path
         d="m -5.7239455,-36.310645 c 3.54807,-2.92365 7.86607,-5.17525 12.51215,-5.51921 1.98702,-0.10054 4.1962895,0.28575 5.6223995,1.79123 1.17739,1.37583 1.68539,3.16441 2.19868,4.86568 0.96044,3.26232 1.48696,6.64898 1.524,10.05152 4.31007,-2.79664 9.00377,-5.11704 14.05467,-6.19918 4.836576,-1.12713 9.940386,-1.02394 14.737286,0.24871 4.64343,1.18797 9.04081,3.29141 12.98839,5.99545 0.0714,-2.39712 0.28311,-4.79689 0.81492,-7.13845 0.56092,-2.50032 1.13506,-5.06942 2.49767,-7.2734 1.21972,-1.81504 3.556,-2.40506 5.63033,-2.35744 4.13014,0.15346 8.02746,1.95792 11.36121,4.31006 2.89454,2.09815 5.46893,4.76515 7.02733,8.01423 0.87313,1.89177 1.37316,4.15925 0.53975,6.15157 -0.6641,1.37318 -1.90235,2.34156 -3.05329,3.29141 -3.55865,2.7305 -7.58825,4.84982 -11.8745,6.17802 7.18079,7.7284821 13.14714,16.5100021 18.36737,25.654002 4.38944,7.79992 8.3238,15.875 11.53319,24.2279 0.0212,0.14287 0.0662,0.43392 0.09,0.57944 -9.31069,-3.33904 -18.99973,-5.50863 -28.74963,-7.09348 -13.79802,-2.16429 -27.79447,-2.90777 -41.748586,-2.53736 -12.70794,0.32809 -25.4026495,1.67746 -37.8512995,4.28361 -6.6066405,1.39435 -13.1524305,3.12473 -19.5024305,5.43189 3.93964,-9.95627 8.60954,-19.63208 14.14198,-28.8025399 4.1142705,-6.8236 8.6995005,-13.37998 13.9435405,-19.3833721 0.67733,-0.82286 1.4896,-1.53194 2.07433,-2.42623 -4.38944,-1.26736 -8.47196,-3.51102 -12.065,-6.31561 -1.2752905,-1.11389 -2.8760205,-2.29129 -3.0850405,-4.09045 0.30162,-0.83609 0.33867,-1.73303 -0.0238,-2.55588 0.77787,-3.80206 3.4237105,-6.91621 6.2944405,-9.38212 m 10.42987,1.41022 c -2.91835,0.31486 -5.59329002,2.01084 -7.366,4.31536 -1.0504,1.42875 -1.9394,3.32317 -1.27,5.10117 0.64029,1.3917 1.98438,2.25689 3.15118998,3.1697 2.19869002,1.51607 4.60375002,2.94482 7.29721002,3.29407 0.74348,0.0344 1.63248,0.18256 2.24366,-0.3519 0.73025,-0.6641 1.7515395,-1.19327 1.9049995,-2.27012 0.59796,-2.39978 0.24342,-4.91861 -0.26723,-7.3025 -0.39956,-1.54253 -0.8414095,-3.10886 -1.6854295,-4.47675 -0.84402,-1.29646 -2.56911,-1.62719 -4.00844,-1.47903 m 62.5289655,0.17463 c -1.02129,0.23812 -1.85737,1.00277 -2.26218,1.96056 -0.90753,1.99231 -1.48696,4.13544 -1.74625,6.30767 -0.22225,1.88912 -0.33338,3.95023 0.52916,5.70177 0.87842,0.80169 1.74625,1.96321 3.09298,1.778 3.04006,-0.12965 5.76527,-1.77006 8.1915,-3.47663 1.04511,-0.80433 2.159,-1.61395 2.84163,-2.76754 0.57943,-1.27529 0.32279,-2.80458 -0.30957,-4.01637 -1.08479,-2.10079 -2.95275,-3.73063 -5.05883,-4.7625 -1.62187,-0.75671 -3.51367,-1.20915 -5.27844,-0.72496 M 13.532444,5.4564771 c -0.99748,0.26458 -1.778,1.03188 -2.33098,1.87325 -1.2197295,1.95792 -1.4631495,4.3841499 -1.143,6.6304599 0.30162,1.6801 0.94192,3.44487 2.36008,4.50321 0.89694,0.70379 2.23838,0.81491 3.19882,0.16668 1.56104,-0.97369 2.286,-2.82045 2.60614,-4.55347 0.34131,-2.39184 0.0979,-4.9900499 -1.29646,-7.0273399 -0.74348,-1.06098 -2.05052,-1.94204 -3.3946,-1.59279 m 45.762326,-0.003 c -1.52929,0.43392 -2.47915,1.89442 -3.02419,3.29936 -0.84667,2.3971199 -0.80698,5.1249699 0.20902,7.4638899 0.52917,1.19063 1.41552,2.34947 2.70933,2.74638 1.06098,0.32543 2.20398,-0.12965 2.94217,-0.90752 1.20385,-1.21444 1.73038,-2.921 1.94204,-4.57994 0.254,-2.19869 -0.13229,-4.5376099 -1.37319,-6.4002699 -0.73025,-1.08741 -2.05581,-1.94996 -3.40518,-1.62187 z"
         fill="#8f5444"
         id="path2"
         style="stroke-width:0.264583" />
      <path
         d="m 4.7059345,-34.900425 c 1.43933,-0.14816 3.16442,0.18257 4.00844,1.47903 0.84402,1.36789 1.2858695,2.93422 1.6853895,4.47675 0.51065,2.38389 0.86519,4.90272 0.26723,7.3025 -0.15346,1.07685 -1.1747495,1.60602 -1.9049995,2.27012 -0.61119,0.53446 -1.50019,0.38629 -2.24367,0.3519 -2.69345,-0.34925 -5.09852,-1.778 -7.29720002,-3.29407 -1.16681998,-0.91281 -2.51089998,-1.778 -3.15118998,-3.1697 -0.6694,-1.778 0.2196,-3.67242 1.27,-5.10117 1.77270998,-2.30452 4.44764,-4.0005 7.366,-4.31536 z"
         fill="#ffffff"
         id="path4"
         style="stroke-width:0.264583" />
      <path
         d="m 67.2349,-34.725795 c 1.76477,-0.48419 3.65654,-0.0318 5.27844,0.72496 2.10608,1.03187 3.97404,2.66171 5.05883,4.7625 0.63236,1.21179 0.889,2.74108 0.30957,4.01637 -0.68263,1.15359 -1.79652,1.96321 -2.84163,2.76754 -2.42623,1.70657 -5.15144,3.34698 -8.1915,3.47663 -1.34673,0.18521 -2.21456,-0.97631 -3.09298,-1.778 -0.86254,-1.75154 -0.75141,-3.81265 -0.52916,-5.70177 0.25929,-2.17223 0.83872,-4.31536 1.74625,-6.30767 0.40478,-0.95779 1.24087,-1.72244 2.26216,-1.96056 z"
         fill="#ffffff"
         id="path6"
         style="stroke-width:0.264583" />
      <path
         d="m -12.018376,-26.928525 c 0.36248,0.82285 0.32543,1.71979 0.0238,2.55588 -0.18786,-0.84403 -0.15082,-1.71186 -0.0238,-2.55588 z"
         fill="#6c3e2d"
         id="path8"
         style="stroke-width:0.264583" />
      <path
         d="m 13.532434,5.4564771 c 1.34408,-0.34925 2.65112,0.53181 3.3946,1.59279 1.39436,2.03729 1.63777,4.6354999 1.29646,7.0273399 -0.32014,1.73302 -1.0451,3.57981 -2.60614,4.55347 -0.96044,0.64823 -2.30188,0.53711 -3.19882,-0.16668 -1.41816,-1.05834 -2.05846,-2.82311 -2.36008,-4.50321 -0.3201495,-2.24631 -0.0767,-4.6725399 1.143,-6.6304599 0.55298,-0.84137 1.3335,-1.60867 2.33098,-1.87325 z"
         fill="#1f1a17"
         id="path10"
         style="stroke-width:0.264583" />
      <path
         d="m 59.29476,5.4538271 c 1.34937,-0.32808 2.67493,0.53446 3.40518,1.6219 1.2409,1.86267 1.62719,4.2015799 1.37319,6.4002699 -0.21166,1.65894 -0.73819,3.3655 -1.94204,4.57994 -0.73819,0.77787 -1.88119,1.23296 -2.94217,0.90752 -1.29381,-0.39688 -2.18016,-1.55572 -2.70933,-2.74638 -1.016,-2.33891 -1.05569,-5.06677 -0.20902,-7.4638899 0.54504,-1.40496 1.4949,-2.86544 3.02419,-3.29936 z"
         fill="#1f1a17"
         id="path12"
         style="stroke-width:0.264583" />
      <path
         d="m -7.5019455,31.213667 c 12.44865,-2.60615 25.1433595,-3.95552 37.8512995,-4.28361 13.954116,-0.37041 27.950566,0.37307 41.748586,2.53736 9.7499,1.58485 19.43894,3.75444 28.74963,7.09348 -0.0238,-0.14552 -0.0688,-0.43657 -0.09,-0.57944 0.11906,0.21431 0.23813,0.43392 0.35983,0.65617 7.72584,2.74373 15.28234,6.23622 21.85459,11.19452 3.06652,2.39183 5.94519,5.11439 8.04333,8.41639 2.00554,3.07446 3.22792,6.72835 3.09563,10.42458 -0.1614,3.91319 -1.79388,7.64911 -4.13809,10.74209 -3.14589,4.1857 -7.36335,7.4242 -11.77925,10.17058 -10.49866,6.35529 -22.33877,10.10444 -34.22914,12.856103 -13.9065,3.06123 -28.13844,4.63286 -42.36773,4.81807 -1.43404,-0.37571 -2.921,-0.22225 -4.38414,-0.24078 -1.64571,0.037 -3.30994,-0.13229 -4.931836,0.22755 -8.01687,-0.0847 -16.03639,-0.65882 -23.9924095,-1.67217 -11.12569,-1.39171 -22.1667505,-3.664483 -32.8241705,-7.170213 -8.79211,-2.98185 -17.47838,-6.73364 -24.85231,-12.46452 -3.38932,-2.67494 -6.48229,-5.84729 -8.52752,-9.6811 -1.93411,-3.57188 -2.64848,-7.83432 -1.7145,-11.811 0.94191,-4.10369 3.38137,-7.69144 6.27327,-10.68123 3.50837,-3.58246 7.70202,-6.41879 12.06764,-8.85296 4.56671,-2.49502 9.35831,-4.58787 14.28486,-6.26798 6.35,-2.30716 12.89579,-4.03754 19.5024305,-5.43189 m 36.5098595,-0.48948 c -3.98198,0.4101 -8.00894,0.99748 -11.72634,2.55323 -1.1377,0.55827 -2.55587,1.28852 -2.70668,2.70139 0.12171,0.97896 0.65616,1.85209 1.19856,2.65907 2.13519,2.96862 4.99004,5.35252 8.0645,7.29985 3.7465,2.28865 8.00365,3.79677 12.406306,4.04019 0,8.45872 0.0529,16.92274 -0.0291,25.38412 -6.781266,1.74096 -13.557246,3.50044 -20.325286,5.28902 0.0741,0.37042 0.14817,0.74348 0.2249,1.11919 1.71185,-0.2884 3.3602,-0.86519 5.05883,-1.22502 l -0.19315,0.0503 c 1.77007,3.44223 3.40255,6.95589 5.11705,10.42723 0.36777,0.68262 0.60854,1.46314 1.15093,2.03993 0.635,0.10319 1.28059,-0.0159 1.91294,-0.0953 2.59556,-0.39423 5.188476,-0.78316 7.784036,-1.17475 1.15359,-0.19843 2.29394,0.17198 3.43693,0.29634 2.39183,0.3175 4.75985,0.83608 7.16756,1.01335 0.70115,0.14288 0.97896,-0.60325 1.23561,-1.09537 1.77006,-3.71211 3.55864,-7.41627 5.33135,-11.12838 1.18004,0.30956 2.35744,0.61913 3.53219,0.94986 0.15875,-0.37307 0.30692,-0.74613 0.43921,-1.12448 -6.73629,-1.87325 -13.53609,-3.52955 -20.29354,-5.34194 0.003,-8.45608 0.0132,-16.91217 -0.005,-25.36825 4.30213,-0.27781 8.49842,-1.66158 12.17613,-3.89996 3.16177,-1.92881 6.07483,-4.35768 8.25235,-7.37129 0.56092,-0.83343 1.16682,-1.71979 1.25677,-2.74637 -0.14287,-1.33086 -1.41816,-2.05581 -2.49766,-2.58763 -2.82575,-1.31233 -5.92932,-1.86002 -8.9879,-2.32039 -6.28385,-0.85461 -12.66825,-0.91546 -18.981206,-0.34396 m -75.47768,35.7267 c 0.35983,0.15611 0.7329,0.29369 1.13242,0.26723 10.31875,-0.003 20.6375,-0.003 30.9536,0 0.66146,-0.0291 1.36261,0.10054 1.99231,-0.16404 0.17463,-0.36777 0.11642,-0.7964 0.0635,-1.18269 -0.32543,-0.3175 -0.84137,-0.17462 -1.24618,-0.22489 -10.7659,0.0159 -21.53179,-0.005 -32.29504,0.0106 -0.69586,-0.0265 -0.5133,0.84402 -0.60061,1.29381 m 132.908136,0.17727 c 2.36538,0.18786 4.74398,0.0397 7.11729,0.0873 8.73654,-0.003 17.47309,0.0106 26.20963,-0.008 1.02923,0.23548 1.0451,-1.78065 0.0106,-1.55046 -10.94317,0.005 -21.88898,-0.0265 -32.83214,0.0159 -0.80698,-0.0794 -0.62178,0.95515 -0.50536,1.45521 m -0.35189,2.81252 c -0.46303,0.46832 -0.48155,1.44198 0.30427,1.56634 10.77118,3.21468 21.57941,6.3156 32.35589,9.52235 0.48419,-0.40746 0.72761,-1.44198 -0.0661,-1.64042 -10.21292,-3.00302 -20.43113,-5.98752 -30.64669,-8.99054 -0.64558,-0.15081 -1.27529,-0.51329 -1.94733,-0.45773 m -125.039436,9.4668 c -0.71173,0.20108 -0.41539,1.02922 -0.2487,1.52664 1.16152,-0.0794 2.24895,-0.53181 3.3602,-0.83079 6.61459,-1.95792 13.23711,-3.88673 19.85434,-5.82613 3.31523,-1.03716 6.6992505,-1.86266 9.9774305,-3.00831 0.003,-0.508 -0.0476,-1.02394 -0.38629,-1.4261 -10.8452705,3.20939 -21.7090605,6.36323 -32.5569805,9.56469 z"
         fill="#bc825c"
         id="path14"
         style="stroke-width:0.264583" />
      <path
         d="m 29.007914,30.724187 c 6.312956,-0.5715 12.697346,-0.51065 18.981196,0.34396 3.05858,0.4604 6.16215,1.00806 8.9879,2.32039 1.0795,0.53182 2.35479,1.25677 2.49766,2.58763 -0.09,1.02658 -0.69585,1.91294 -1.25677,2.74637 -2.17752,3.01361 -5.09058,5.44248 -8.25235,7.37129 -3.67771,2.23838 -7.874,3.62215 -12.17612,3.89996 0.0185,8.45608 0.008,16.91217 0.005,25.36825 6.75745,1.81239 13.55725,3.46869 20.29354,5.34194 -0.13229,0.37835 -0.28046,0.75141 -0.43921,1.12448 -1.17475,-0.33073 -2.35215,-0.6403 -3.53219,-0.94986 -5.44512,-1.38906 -10.88231,-2.80458 -16.31156,-4.25714 -0.52652,-0.0741 -1.06098,-0.0794 -1.5875,-0.082 -0.0159,0.43921 -0.0291,0.88636 -0.0238,1.33086 -0.045,-0.40746 -0.09,-0.80963 -0.13229,-1.21179 -4.963576,1.29381 -9.929806,2.57968 -14.888096,3.88673 -1.69863,0.35983 -3.34698,0.93662 -5.05884,1.22502 -0.0767,-0.37571 -0.15081,-0.74877 -0.22489,-1.11919 6.76804,-1.78858 13.54402,-3.54806 20.325286,-5.28902 0.082,-8.46138 0.0291,-16.9254 0.0291,-25.38412 -4.402666,-0.24342 -8.659806,-1.75154 -12.406306,-4.04019 -3.07446,-1.94733 -5.92932,-4.33123 -8.0645,-7.29985 -0.5424,-0.80698 -1.07686,-1.68011 -1.19857,-2.65907 0.15082,-1.41287 1.56898,-2.14312 2.70669,-2.70139 3.7174,-1.55575 7.74435,-2.14313 11.72633,-2.55323 z"
         fill="#8f5444"
         id="path16"
         style="stroke-width:0.264583" />
      <path
         d="m -46.469776,66.450867 c 0.0873,-0.44979 -0.0952,-1.32027 0.60061,-1.29381 10.76325,-0.0159 21.52914,0.005 32.29504,-0.0106 0.40481,0.0503 0.92075,-0.0926 1.24618,0.22489 0.0529,0.38629 0.11113,0.81492 -0.0635,1.18269 -0.6297,0.26458 -1.33085,0.13491 -1.99231,0.16404 -10.3161,-0.003 -20.63485,-0.003 -30.9536,0 -0.39952,0.0265 -0.77259,-0.11112 -1.13242,-0.26723 z"
         fill="#211712"
         id="path18"
         style="stroke-width:0.264583" />
      <path
         d="m 86.43836,66.628137 c -0.11642,-0.50006 -0.30162,-1.53458 0.50536,-1.45521 10.94316,-0.0423 21.88897,-0.0106 32.83214,-0.0159 1.03452,-0.23019 1.01865,1.78594 -0.0106,1.55046 -8.73654,0.0185 -17.47309,0.005 -26.20963,0.008 -2.37331,-0.0476 -4.75191,0.10054 -7.11729,-0.0873 z"
         fill="#211610"
         id="path20"
         style="stroke-width:0.264583" />
      <path
         d="m 86.08647,69.440657 c 0.67204,-0.0556 1.30175,0.30692 1.94733,0.45773 10.21556,3.00302 20.43377,5.98752 30.64669,8.99054 0.79375,0.19844 0.55033,1.23296 0.0661,1.64042 -10.77648,-3.20675 -21.58471,-6.30767 -32.35589,-9.52235 -0.78582,-0.12436 -0.7673,-1.09802 -0.30427,-1.56634 z"
         fill="#211915"
         id="path22"
         style="stroke-width:0.264583" />
      <path
         d="m -38.952966,78.907457 c 10.84792,-3.20146 21.71171,-6.3553 32.5569805,-9.56469 0.33867,0.40216 0.38894,0.9181 0.38629,1.4261 -3.27818,1.14565 -6.6622005,1.97115 -9.9774305,3.00831 -6.61723,1.9394 -13.23975,3.86821 -19.85434,5.82613 -1.11125,0.29898 -2.19868,0.75142 -3.3602,0.83079 -0.16669,-0.49742 -0.46303,-1.32556 0.2487,-1.52664 z"
         fill="#201916"
         id="path24"
         style="stroke-width:0.264583" />
      <path
         d="m 36.2178,76.539427 c 0.52652,0.003 1.06098,0.008 1.5875,0.082 -0.10054,4.28625 0.0238,8.57779 -0.1217,12.86404 -0.63765,-3.84969 -0.96838,-7.747 -1.48961,-11.61521 -0.005,-0.4445 0.008,-0.89165 0.0238,-1.33086 z"
         fill="#687ab0"
         id="path26"
         style="stroke-width:0.264583" />
      <path
         d="m 21.173604,80.545227 c 4.95829,-1.30705 9.92452,-2.59292 14.888096,-3.88673 0.0423,0.40216 0.0873,0.80433 0.13229,1.21179 0.52123,3.86821 0.85196,7.76552 1.48961,11.61521 0.14552,-4.28625 0.0212,-8.57779 0.1217,-12.86404 5.42925,1.45256 10.86644,2.86808 16.31156,4.25714 -1.77271,3.71211 -3.56129,7.41627 -5.33135,11.12838 -0.25665,0.49212 -0.53446,1.23825 -1.23561,1.09537 -2.40771,-0.17727 -4.77573,-0.69585 -7.16756,-1.01335 -1.14299,-0.12436 -2.28335,-0.49477 -3.43693,-0.29634 -2.59556,0.39159 -5.188476,0.78052 -7.784036,1.17475 -0.63236,0.0794 -1.27794,0.19844 -1.91294,0.0953 -0.5424,-0.57679 -0.78317,-1.35728 -1.15094,-2.03993 -1.7145,-3.47134 -3.34698,-6.985 -5.11704,-10.42723 z"
         fill="#ffffff"
         id="path28"
         style="stroke-width:0.264583" />
      <path
         d="m 32.280804,105.24673 c 1.621896,-0.35984 3.286126,-0.1905 4.931836,-0.22755 1.46314,0.0185 2.9501,-0.13491 4.38414,0.24078 -1.62984,0.14816 -3.26496,0.0503 -4.89743,0.082 -1.47373,-0.037 -2.95275,0.0847 -4.418546,-0.0952 z"
         fill="#9a755d"
         id="path30"
         style="stroke-width:0.264583" />
    </g>
  </g>
</svg>
